PathFileType	4	(X/Y/Z)	OpenSim_Sub02_EMGBaseline_Accel.trc
DataRate	CameraRate	NumFrames	NumMarkers	Units	OrigDataRate	OrigDataStartFrame	OrigNumFrames
100	100	20	8	m	100	1682	6727
Frame#	Time	torso_imu_offset_imu	pelvis_imu_offset_imu	tibia_r_imu_offset_imu	femur_r_imu_offset_imu	tibia_l_imu_offset_imu	femur_l_imu_offset_imu	toes_r_imu_offset_imu	toes_l_imu_offset_imu
				X1	Y1	Z1	X2	Y2	Z2	X3	Y3	Z3	X4	Y4	Z4	X5	Y5	Z5	X6	Y6	Z6	X7	Y7	Z7	X8		Y8	Z8	

1682	16.81000000	9.09539755	-0.25566984	7.54508289	10.10120381	1.24564294	1.37020997	10.13771788	2.39992473	0.55189886	9.24569895	-2.76213557	-1.02144923	11.34779445	4.70402924	-1.63524273	10.07989558	6.20734997	-0.75512173	5.22478318	-0.30132070	8.79681624	20.25769255	-7.38774173	-1.31558070
1683	16.82000000	9.08337856	-0.25637304	7.49902690	9.90274606	1.18787048	1.35145625	10.12350338	2.63967828	0.69533016	9.47468465	-2.74843961	-1.05470182	10.04385814	4.98454353	-2.43663210	9.59959971	5.21087543	-0.54139894	5.51936686	-0.05166827	8.61016745	19.16870876	-5.19244420	-4.61261599
1684	16.83000000	9.00182108	-0.33271526	7.40330637	9.97729395	1.15030752	1.24759391	10.19723683	2.51898028	0.91708975	9.45767809	-2.76467588	-1.31648937	10.26908388	2.88845189	-3.06437713	9.07222696	4.52760906	-0.60829238	5.58930113	0.42739030	8.68232570	13.90915290	-2.14938848	-7.69796123
1685	16.84000000	9.06503924	-0.45593006	7.37787849	10.03496415	1.07373306	1.24463635	10.29398941	2.56577321	1.18489072	9.40497787	-2.82533864	-1.41373583	10.42711822	-0.04744210	-3.03652302	8.95750420	4.52233995	-0.90167040	5.41118524	0.39999183	8.85828698	-2.20977639	-0.27332387	8.29529215
1686	16.85000000	9.34287122	-0.50009512	7.36899578	10.55561159	1.01000723	1.65196245	10.48031203	2.92371201	1.47607501	9.74541292	-2.74623745	-1.19742219	9.54721975	-3.03089338	-3.25573478	9.90026461	4.32428125	-1.26595765	5.37529964	0.27090049	9.01334312	-6.63924449	1.86587122	27.37888064
1687	16.86000000	9.91943112	-0.55891984	7.38682676	11.23547801	0.60466588	2.28769711	10.89262298	3.14018576	1.69977514	10.43884919	-2.54956180	-0.88056716	8.44643540	-3.25660724	-4.30407511	11.16954497	3.84433893	-1.61645586	4.98442531	0.17642796	9.32683443	-4.48333939	-3.09071590	13.53442929
1688	16.87000000	10.64836343	-0.54558791	7.59743019	11.62572738	0.03076701	2.63093901	11.48218829	3.09861219	1.99945920	10.92679642	-2.23924346	-0.62950481	10.36266029	1.52281236	-1.14817152	11.88978213	3.05017117	-1.93646740	5.31095125	0.00147216	9.17207116	-0.62258181	-7.12925413	5.14026168
1689	16.88000000	11.16407141	-0.33581254	7.87529661	11.96239947	-0.37208918	2.92253362	11.99090686	2.82814361	2.41411194	10.90925298	-2.16698437	-0.45997711	16.37108194	8.01854581	6.30051409	13.17129675	1.60640752	-1.60115706	5.36943182	0.15018864	9.18800091	12.58221663	-3.54074122	19.74728373
1690	16.89000000	11.35178645	-0.14178595	7.94745286	12.37791176	-1.02507005	3.58662287	12.21915254	2.59509336	2.46125555	10.75647315	-2.25789081	-0.44335588	18.93661668	9.51138452	9.73902693	16.59642263	0.24590626	-0.23841188	5.22746797	0.25380916	9.36784805	13.78633253	0.80844577	19.07862989
1691	16.90000000	11.60837881	-0.11149605	8.02484933	13.24021913	-2.08479510	3.96426314	12.32233088	2.22018983	2.44827936	10.70230016	-2.28202002	-0.57093548	15.26400807	5.19150050	7.21326306	18.73444273	0.48573894	0.55671183	5.26045305	0.11859447	9.54887962	11.77452514	6.18869441	15.85570859
1692	16.91000000	12.25372107	-0.05722611	8.38574007	13.73128923	-2.97868528	4.08340419	12.56356008	1.66192383	2.48656626	10.92797683	-2.08174349	-0.70603682	14.37377641	3.46021575	4.56860146	16.38042996	1.35243148	0.02539006	5.24467472	-0.39865592	9.43092234	15.18068542	8.36360460	18.64674361
1693	16.92000000	12.77777842	0.23344035	8.75514787	13.17913820	-2.79283591	4.11217536	12.95625242	1.13087236	2.53556759	11.22040990	-1.78614466	-0.61228424	15.79002790	5.61243327	4.25855147	12.97475107	1.45700803	-0.62932471	5.44204294	-0.90841465	9.36974700	12.21931868	-1.30935568	17.30596621
1694	16.93000000	12.45397812	0.57374745	8.72115606	11.67495283	-1.48466082	3.83061638	13.23139038	0.67820600	2.63033725	11.26274321	-1.34556938	-0.21224336	12.85807299	5.02238354	3.55810505	10.09352676	1.36742892	-1.23901585	5.05445588	-1.41416333	9.35094003	6.75014509	-7.77661074	13.06583204
1695	16.94000000	11.17062635	0.87178061	8.63015450	10.29876122	0.29732456	3.87818063	13.15740220	0.25072702	2.96976153	11.39122164	-0.47802196	0.19162931	8.72444152	1.19437745	1.49464370	7.69784415	0.69851079	-1.73458303	5.28321378	-1.76896526	8.65127302	5.96788894	-1.60462046	11.21252087
1696	16.95000000	9.63454309	1.08283160	8.49173270	9.60988743	1.84888395	4.26721321	12.69535059	0.22696204	2.46836161	11.32549473	0.50372695	0.39647338	6.96745392	-2.45179609	-0.71681499	7.23325226	-0.81771309	-2.10018490	5.45530299	-1.46013087	8.32735889	5.49145302	2.75600735	12.63352736
1697	16.96000000	8.50154254	1.18606485	7.89185397	9.02484895	3.00166864	4.73531028	12.11371645	0.89293370	1.44995213	10.87016730	1.54573214	0.59924216	6.41181867	-5.57921635	-2.81010324	7.64894417	-2.70617617	-2.67135874	7.38186988	-0.97064188	7.81377093	3.71586785	2.89111958	12.14171381
1698	16.97000000	7.72667187	1.24245962	7.46958869	8.35308363	3.71767985	5.16703619	11.65256722	1.76347455	1.51738035	10.50028795	2.64709212	1.01240723	6.43928851	-8.94563175	-5.24480756	7.38628916	-4.40506275	-3.05379064	10.03490311	-0.48161324	7.73930289	3.22604132	2.75526823	11.85221977
1699	16.98000000	6.99497637	1.33414168	7.32582003	7.74810663	3.99140009	5.33788022	11.15467066	2.86444287	2.13261759	10.34133201	3.28286178	1.31059390	6.87952028	-12.31959178	-7.42908590	6.50331792	-5.03129948	-2.93656033	11.88330016	-0.85010404	8.44108026	4.01001923	1.89326465	11.77440734
1700	16.99000000	6.28148503	1.39686817	6.81250858	7.21531596	3.72284467	5.27210294	10.29036951	4.36536974	2.89371318	10.29998625	3.32120466	1.52973002	7.52879948	-13.33342065	-8.15211448	6.11444264	-4.29031660	-2.55339680	16.13524848	-0.29782049	8.29648620	3.95643450	1.34820469	11.66158836
1701	17	5.74155013	1.32022288	6.29743728	6.91883029	2.76033298	5.08292751	9.10513043	6.40707516	3.33438070	10.35160361	2.75628922	1.85482338	8.98915367	-9.66921201	-6.42556894	7.07408012	-3.11246251	-2.21916648	17.99917892	0.50089813	7.51219867	3.54880603	1.24066609	11.75737061
